# xmcd
#
# Track frame offsets: 
#        150
#        13835
#        28438
#        40584
#        54647
#        66766
#        78966
#        91382
#        104068
#        120398
#        133381
#        148686
#        162722
#        175165
#        188283
#        202184
#
# Disc length: 2887 seconds
#
# Revision: 0
# Processed by: cddbd v1.5.1PL2 Copyright (c) Steve Scherf et al.
# Submitted via: ExactAudioCopy v0.95a3
#
DISCID=e90b4510
DTITLE=Ronaldo Viola and João Carvalho - O Melhor De
DYEAR=2006
DGENRE=Sertanejo
TTITLE0=Paixão Goiana
TTITLE1=Batidão Lascado
TTITLE2=Flor De Goiás
TTITLE3=Rodeio Brasileiro
TTITLE4=Copia Da Chave
TTITLE5=Rodeio Universitário
TTITLE6=Pagode Do Grotão
TTITLE7=Viola Pagodeira
TTITLE8=Absurdo De Bão
TTITLE9=Bailão Do Chamamé
TTITLE10=Gaiteiro Velho
TTITLE11=Janela Da Solidão
TTITLE12=Guerreiro Da Poesia
TTITLE13=Derramado De Paixão
TTITLE14=Paixão Louca
TTITLE15=Sobrado Da Alegria
EXTD=
EXTT0=
EXTT1=
EXTT2=
EXTT3=
EXTT4=
EXTT5=
EXTT6=
EXTT7=
EXTT8=
EXTT9=
EXTT10=
EXTT11=
EXTT12=
EXTT13=
EXTT14=
EXTT15=
PLAYORDER=
